<svg xmlns="http://www.w3.org/2000/svg" width="800" height="600" viewBox="0 0 800 600" fill="none">
  <path d="M170 120C187.673 120 202 105.673 202 88C202 70.3269 187.673 56 170 56C152.327 56 138 70.3269 138 88C138 105.673 152.327 120 170 120Z" fill="#94a3b8" fill-opacity="0.8"/>
  <path d="M230 140C252.091 140 270 122.091 270 100C270 77.9086 252.091 60 230 60C207.909 60 190 77.9086 190 100C190 122.091 207.909 140 230 140Z" fill="#94a3b8" fill-opacity="0.8"/>
  <path d="M300 120C317.673 120 332 105.673 332 88C332 70.3269 317.673 56 300 56C282.327 56 268 70.3269 268 88C268 105.673 282.327 120 300 120Z" fill="#94a3b8" fill-opacity="0.8"/>
  <path d="M370 140C392.091 140 410 122.091 410 100C410 77.9086 392.091 60 370 60C347.909 60 330 77.9086 330 100C330 122.091 347.909 140 370 140Z" fill="#94a3b8" fill-opacity="0.8"/>
  <path d="M440 120C457.673 120 472 105.673 472 88C472 70.3269 457.673 56 440 56C422.327 56 408 70.3269 408 88C408 105.673 422.327 120 440 120Z" fill="#94a3b8" fill-opacity="0.8"/>
  <path d="M500 140C522.091 140 540 122.091 540 100C540 77.9086 522.091 60 500 60C477.909 60 460 77.9086 460 100C460 122.091 477.909 140 500 140Z" fill="#94a3b8" fill-opacity="0.8"/>
  <path d="M570 120C587.673 120 602 105.673 602 88C602 70.3269 587.673 56 570 56C552.327 56 538 70.3269 538 88C538 105.673 552.327 120 570 120Z" fill="#94a3b8" fill-opacity="0.8"/>
  <path d="M630 140C652.091 140 670 122.091 670 100C670 77.9086 652.091 60 630 60C607.909 60 590 77.9086 590 100C590 122.091 607.909 140 630 140Z" fill="#94a3b8" fill-opacity="0.8"/>
  <line x1="200" y1="200" x2="180" y2="300" stroke="#3b82f6" stroke-width="2" />
  <line x1="250" y1="180" x2="230" y2="280" stroke="#3b82f6" stroke-width="2" />
  <line x1="300" y1="200" x2="280" y2="300" stroke="#3b82f6" stroke-width="2" />
  <line x1="350" y1="180" x2="330" y2="280" stroke="#3b82f6" stroke-width="2" />
  <line x1="400" y1="200" x2="380" y2="300" stroke="#3b82f6" stroke-width="2" />
  <line x1="450" y1="180" x2="430" y2="280" stroke="#3b82f6" stroke-width="2" />
  <line x1="500" y1="200" x2="480" y2="300" stroke="#3b82f6" stroke-width="2" />
  <line x1="550" y1="180" x2="530" y2="280" stroke="#3b82f6" stroke-width="2" />
  <line x1="600" y1="200" x2="580" y2="300" stroke="#3b82f6" stroke-width="2" />
</svg>

