<svg xmlns="http://www.w3.org/2000/svg" width="800" height="600" viewBox="0 0 800 600" fill="none">
  <circle cx="100" cy="100" r="1" fill="white" />
  <circle cx="200" cy="150" r="1" fill="white" />
  <circle cx="300" cy="100" r="1" fill="white" />
  <circle cx="400" cy="150" r="1" fill="white" />
  <circle cx="500" cy="100" r="1" fill="white" />
  <circle cx="600" cy="150" r="1" fill="white" />
  <circle cx="700" cy="100" r="1" fill="white" />
  <circle cx="150" cy="200" r="1" fill="white" />
  <circle cx="250" cy="250" r="1" fill="white" />
  <circle cx="350" cy="200" r="1" fill="white" />
  <circle cx="450" cy="250" r="1" fill="white" />
  <circle cx="550" cy="200" r="1" fill="white" />
  <circle cx="650" cy="250" r="1" fill="white" />
  <circle cx="750" cy="200" r="1" fill="white" />
  <circle cx="125" cy="125" r="2" fill="white" />
  <circle cx="225" cy="175" r="2" fill="white" />
  <circle cx="325" cy="125" r="2" fill="white" />
  <circle cx="425" cy="175" r="2" fill="white" />
  <circle cx="525" cy="125" r="2" fill="white" />
  <circle cx="625" cy="175" r="2" fill="white" />
  <circle cx="725" cy="125" r="2" fill="white" />
</svg>

